<?xml version="1.0" encoding="UTF-8" standalone="no"?>
<!-- Created with Inkscape (http://www.inkscape.org/) -->
<svg xmlns:dc="http://purl.org/dc/elements/1.1/" xmlns:cc="http://creativecommons.org/ns#" xmlns:rdf="http://www.w3.org/1999/02/22-rdf-syntax-ns#" xmlns:svg="http://www.w3.org/2000/svg" xmlns="http://www.w3.org/2000/svg" xmlns:sodipodi="http://sodipodi.sourceforge.net/DTD/sodipodi-0.dtd" xmlns:inkscape="http://www.inkscape.org/namespaces/inkscape" id="svg7044" sodipodi:version="0.32" inkscape:version="0.46dev+devel" width="278.9046" height="264.53754" xml:space="preserve" sodipodi:docname="artwork.svg" version="1.0" inkscape:output_extension="org.inkscape.output.svg.inkscape"><metadata id="metadata7049"><rdf:RDF><cc:Work rdf:about=""><dc:format>image/svg+xml</dc:format><dc:type rdf:resource="http://purl.org/dc/dcmitype/StillImage"/></cc:Work></rdf:RDF></metadata><defs id="defs7047"><clipPath clipPathUnits="userSpaceOnUse" id="clipPath7169"><path d="M 204.62,211.057 L 409.5,211.057 L 409.5,28.75 L 204.62,28.75 L 204.62,211.057 z" clip-rule="evenodd" id="path7171"/></clipPath><clipPath clipPathUnits="userSpaceOnUse" id="clipPath7175"><path d="M 0,648 L 432,648 L 432,0 L 0,0 L 0,648 z" id="path7177"/></clipPath><clipPath clipPathUnits="userSpaceOnUse" id="clipPath7181"><path d="M 0,648.06 L 432,648.06 L 432,0.06 L 0,0.06 L 0,648.06 z" id="path7183"/></clipPath><clipPath clipPathUnits="userSpaceOnUse" id="clipPath7191"><path d="M 204.62,211.057 L 409.5,211.057 L 409.5,28.75 L 204.62,28.75 L 204.62,211.057 z" clip-rule="evenodd" id="path7193"/></clipPath><clipPath clipPathUnits="userSpaceOnUse" id="clipPath7199"><path d="M 0,648 L 432,648 L 432,0 L 0,0 L 0,648 z" id="path7201"/></clipPath><clipPath clipPathUnits="userSpaceOnUse" id="clipPath7207"><path d="M 0,648.06 L 432,648.06 L 432,0.06 L 0,0.06 L 0,648.06 z" id="path7209"/></clipPath></defs><sodipodi:namedview inkscape:window-height="646" inkscape:window-width="640" inkscape:pageshadow="2" inkscape:pageopacity="0.0" guidetolerance="10.0" gridtolerance="10.0" objecttolerance="10.0" borderopacity="1.0" bordercolor="#666666" pagecolor="#ffffff" id="base" showgrid="false" inkscape:zoom="1" inkscape:cx="270" inkscape:cy="184.74614" inkscape:window-x="184" inkscape:window-y="184" inkscape:current-layer="g7051"/><g id="g7051" inkscape:groupmode="layer" inkscape:label="guide" transform="matrix(1.25,0,0,-1.25,-8.3515795,798.89933)"><g id="g7468" transform="matrix(1.5597552,0,0,1.5597552,-320.60217,312.98001)"><path id="path7075" style="fill:#f9a749;fill-opacity:1;fill-rule:nonzero;stroke:none" d="M 162.208,603.66 L 162.295,603.66 L 162.208,603.66"/><path id="path7185" style="fill:#f9a749;fill-opacity:1;fill-rule:nonzero;stroke:none" d="M 209.83,157.076 C 210.042,155.088 225.763,82.541 225.763,82.541 L 352.317,95.565 L 310.999,193.477 L 209.83,157.076"/><path id="path7211" style="fill:#ffffff;fill-opacity:1;fill-rule:nonzero;stroke:none" d="M 225.164,137.094 L 245.159,73.928 C 245.159,73.928 290.792,97.104 330.27,103.768 C 330.27,103.768 314.583,131.148 313.709,163.858 L 225.164,137.094"/><path id="path7213" style="fill:#1f57af;fill-opacity:1;fill-rule:nonzero;stroke:none" d="M 313.709,163.858 C 314.991,162.935 314.376,160.987 314.682,159.551 C 316.632,140.889 322.632,123.968 330.474,107.766 L 331.091,107.152 C 331.04,106.895 330.679,107.049 330.474,106.998 C 324.222,114.227 320.94,122.687 317.402,130.994 C 314.478,138.274 313.299,146.221 311.608,154.014 C 311.401,157.295 309.71,162.116 312.632,164.575 C 312.53,164.985 312.735,165.344 313.096,165.447 C 314.067,165.293 313.299,164.472 313.709,163.858"/><path id="path7215" style="fill:#1f57af;fill-opacity:1;fill-rule:nonzero;stroke:none" d="M 308.787,163.96 C 309.046,162.064 310.94,163.106 309.761,162.389 C 301.917,157.876 288.331,155.86 280.128,152.27 C 269.36,148.733 258.234,146.067 247.774,141.811 C 243.109,140.376 238.495,138.786 233.726,137.504 C 232.188,136.788 230.599,136.172 228.805,136.068 C 229.42,131.968 230.958,128.019 231.778,123.866 C 233.521,118.893 234.649,113.714 236.084,108.586 C 238.905,101.666 240.801,94.335 243.468,87.311 C 244.391,83.31 246.39,79.774 246.646,75.519 C 246.185,74.85 246.237,73.776 245.159,73.928 C 244.954,73.366 244.391,73.671 244.084,73.415 C 243.057,75.568 241.622,77.518 240.649,79.721 C 239.879,83.208 237.725,86.183 236.957,89.669 L 236.341,90.641 C 231.009,105.665 226.036,120.791 223.78,137.042 L 223.78,139.965 C 224.292,139.965 223.626,140.325 224.037,140.376 L 227.317,141.093 C 227.317,140.889 227.522,140.836 227.471,140.581 C 228.343,140.581 229.214,141.504 230.188,141.709 C 237.981,144.581 246.134,146.733 253.927,149.81 C 267.413,153.552 280.538,158.219 294.38,161.038 C 299.251,161.86 303.403,164.472 308.787,163.96"/><path id="path7217" style="fill:#fcd09b;fill-opacity:1;fill-rule:nonzero;stroke:none" d="M 295.509,147.758 C 294.483,145.759 293.201,143.914 292.073,141.965 C 290.894,141.299 289.562,142.17 288.638,142.325 L 288.741,142.939 C 290.792,144.887 292.483,147.452 294.894,148.835 C 295.61,148.989 295.765,148.22 295.509,147.758"/><path id="path7219" style="fill:#fcd09b;fill-opacity:1;fill-rule:nonzero;stroke:none" d="M 280.296,140.803 C 280.384,140.237 279.729,140.237 279.424,139.974 C 275.8,136.963 271.044,133.995 268.425,129.806 C 267.116,127.275 265.152,123.784 267.29,120.991 C 268.905,118.329 271.741,117.586 274.405,117.019 C 275.67,116.146 277.284,116.887 278.725,116.8 C 284.223,117.237 288.675,122.299 291.076,126.969 C 291.905,129.543 291.337,132.163 290.42,134.519 C 288.458,137.006 284.485,136.395 281.866,135.566 C 278.245,133.995 274.884,130.809 274.099,126.881 C 273.532,125.876 273.312,124.744 274.187,123.828 C 275.408,122.474 276.979,122.299 278.593,122.561 C 281.169,123.609 283.089,126.139 283.614,128.758 C 283.568,129.326 283.831,130.374 282.914,130.198 C 281.081,130.416 279.424,129.675 278.593,128.104 C 278.376,127.929 278.638,127.536 278.899,127.494 C 279.204,127.494 279.685,127.973 279.772,127.405 C 279.772,126.793 279.424,126.139 278.899,125.922 C 278.593,125.965 278.245,125.922 278.07,125.617 C 277.546,125.703 276.849,125.791 276.717,126.446 C 275.931,128.889 277.808,130.416 279.249,131.769 C 280.863,133.08 283.439,133.34 285.097,132.423 C 287.541,130.898 285.753,128.366 285.839,126.228 C 284.312,122.518 280.427,119.682 276.411,119.55 C 274.755,119.593 273.27,120.161 271.917,120.903 C 269.343,123.741 270.87,128.279 272.091,131.247 C 275.059,136.875 281.169,139.538 287.409,138.709 C 289.897,138.097 291.511,136.833 293.781,135.655 C 296.837,133.471 295.921,128.846 295.353,125.703 C 293.214,118.808 286.45,113.746 279.772,111.87 C 275.713,111.563 271.479,112.13 268.033,113.876 C 264.193,116.277 262.752,120.859 263.624,125.398 C 265.152,132.206 271.741,137.835 277.765,140.891 C 278.464,140.891 279.381,140.934 280.078,141.196 L 280.296,140.803"/><path id="path7221" style="fill:#ffffff;fill-opacity:1;fill-rule:nonzero;stroke:none" d="M 224.037,140.222 L 224.651,140.376 L 224.395,140.222 L 224.037,140.222"/><path id="path7223" style="fill:#fcd09b;fill-opacity:1;fill-rule:nonzero;stroke:none" d="M 308.685,134.839 C 308.53,133.865 309.556,132.532 308.327,131.968 C 305.098,131.813 302.225,133.301 299.302,133.096 C 298.943,133.25 299.046,133.761 299.2,133.967 C 301.814,135.299 304.839,135.454 307.915,135.659 L 308.685,134.839"/><path id="path7225" style="fill:#fcd09b;fill-opacity:1;fill-rule:nonzero;stroke:none" d="M 263.465,132.583 C 263.619,132.274 263.208,132.224 263.105,131.968 C 259.671,132.532 256.337,133.25 253.261,134.684 C 252.543,135.043 252.287,134.48 251.774,135.299 C 251.978,136.172 252.492,136.889 253.363,137.146 C 257.465,139.197 260.439,134.993 263.465,132.583"/><path id="path7227" style="fill:#fcd09b;fill-opacity:1;fill-rule:nonzero;stroke:none" d="M 307.3,120.073 C 308.069,119.458 308.019,118.329 307.815,117.458 C 307.559,116.637 307.044,115.766 306.224,115.252 C 305.098,115.099 304.534,116.38 303.608,116.74 C 301.353,117.458 299.559,119.303 297.456,120.431 C 296.944,120.944 296.38,121.457 296.636,122.277 C 297.866,123.251 299.661,122.534 301.046,122.379 L 307.3,120.073"/><path id="path7229" style="fill:#fcd09b;fill-opacity:1;fill-rule:nonzero;stroke:none" d="M 260.49,117.406 C 261.105,116.278 259.517,116.174 259.055,115.56 L 253.261,110.637 C 252.8,110.381 252.287,110.637 251.876,110.895 C 251.312,113.151 254.184,114.585 255.721,115.971 C 257.209,116.689 258.746,117.713 260.49,117.406"/><path id="path7231" style="fill:#1f57af;fill-opacity:1;fill-rule:nonzero;stroke:none" d="M 331.706,104.434 C 331.501,103.511 329.86,103.768 329.349,102.588 C 329.245,101.922 328.475,101.718 328.015,101.461 C 316.427,98.59 304.429,96.642 293.406,92.489 C 280.896,88.541 268.335,84.542 256.748,78.336 C 254.235,77.467 251.876,76.184 249.262,75.622 C 248.954,75.416 248.749,74.954 248.389,75.004 C 247.519,75.672 248.852,76.286 249.262,76.491 C 266.643,87.567 286.023,94.181 305.608,100.231 C 314.121,102.026 322.324,105.459 331.706,104.434"/><path id="path7233" style="fill:#fcd09b;fill-opacity:1;fill-rule:nonzero;stroke:none" d="M 270.54,108.844 C 270.079,106.229 268.95,103.921 268.694,101.206 C 268.233,100.231 267.054,100.077 266.079,100.385 C 265.567,100.589 264.952,100.795 264.849,101.461 C 265.926,104.332 267.514,106.946 269.669,109.357 C 270.079,109.458 270.437,109.202 270.54,108.844"/><path id="path7235" style="fill:#8495d3;fill-opacity:1;fill-rule:nonzero;stroke:none" d="M 319.812,109.588 C 309.188,110.831 300.356,104.617 291.956,99.485 C 286.591,95.324 280.306,93.325 273.368,93 C 266.485,93 260.091,92.028 254.78,88.299 C 251.474,86.248 248.168,84.139 244.862,82.086 L 243.725,81.977 C 243.67,83.708 245.405,85.057 246.435,86.518 C 251.365,91.866 257.327,95.432 264.265,96.243 C 271.417,96.891 278.571,96.567 284.694,99.862 C 292.065,103.481 298.134,110.182 306.533,111.372 C 310.815,112.235 315.585,112.721 319.377,110.505 C 319.703,110.236 319.865,109.804 319.812,109.588"/><path id="path7237" style="fill:#1f57af;fill-opacity:1;fill-rule:nonzero;stroke:none" d="M 324.17,203.799 C 327.962,202.004 332.373,200.415 334.731,196.518 C 334.886,194.672 333.45,193.133 332.886,191.391 C 331.911,189.75 329.964,188.006 331.04,185.956 C 332.886,185.443 335.603,185.7 336.475,183.393 C 338.936,177.651 334.219,173.086 331.655,168.471 L 328.015,163.191 C 326.067,163.91 324.065,164.524 322.324,165.653 C 313.709,168.728 304.583,170.832 295.252,171.806 L 293.149,172.524 C 292.688,178.88 290.382,185.597 292.329,191.852 C 293.253,193.133 294.329,194.416 295.765,195.083 L 295.61,194.928 C 297.767,195.391 300.636,195.236 302.788,194.569 C 303.813,196.518 301.917,198.416 302.02,200.62 C 302.02,202.056 302.378,203.593 303.147,204.926 C 309.556,208.619 317.913,206.003 324.17,203.799"/><path id="path7239" style="fill:#8495d3;fill-opacity:1;fill-rule:nonzero;stroke:none" d="M 328.733,197.543 L 329.349,196.313 C 328.066,195.903 326.938,196.108 325.657,195.698 C 318.685,195.236 312.686,197.749 307.915,202.056 C 308.12,202.825 308.735,202.415 309.3,202.67 C 316.325,202.67 323.348,201.901 328.733,197.543"/><path id="path7241" style="fill:#ffffff;fill-opacity:1;fill-rule:nonzero;stroke:none" d="M 328.475,192.211 C 327.962,192.211 328.628,191.905 328.22,191.852 C 324.118,191.391 320.271,191.083 316.17,192.108 C 312.273,193.801 308.174,195.288 305.608,199.133 L 305.864,199.493 C 311.556,193.133 320.118,191.75 328.475,192.211"/><path id="path7243" style="fill:#8495d3;fill-opacity:1;fill-rule:nonzero;stroke:none" d="M 326.272,190.006 C 324.938,188.418 324.58,185.854 325.398,184.008 C 326.221,182.368 328.425,183.497 329.81,182.983 C 331.04,182.674 332.319,182.009 332.681,180.675 C 332.474,176.521 329.707,172.729 326.272,170.574 C 323.247,171.909 319.863,172.42 316.682,173.292 C 309.915,174.78 303.147,176.164 296.225,177.343 C 295.714,181.291 294.995,186.417 296.841,190.161 C 298.481,191.185 301.097,191.29 302.892,190.52 C 304.122,190.929 305.301,191.391 306.224,192.622 C 306.224,193.904 306.121,194.979 306.326,196.057 C 312.019,192.005 318.426,188.777 326.272,190.006"/><path id="path7245" style="fill:#231f20;fill-opacity:1;fill-rule:nonzero;stroke:none" d="M 329.424,96.485 L 329.284,96.442 L 328.516,96.85 L 329.424,96.485"/><path id="path7247" style="fill:#8495d3;fill-opacity:1;fill-rule:nonzero;stroke:none" d="M 319.323,111.585 C 319.168,115.557 321.454,120.089 325.099,121.931 C 328.362,121.187 332.997,122.27 334.856,118.556 C 338.177,114.417 336.175,109.327 333.55,105.031 C 331.71,102.002 333.804,98.398 335.3,95.747 C 335.022,95.663 334.725,95.648 334.647,95.281 C 331.565,94.942 328.893,97.346 326.223,98.875 C 322.677,102.149 319.358,106.288 319.323,111.585"/><path id="path7249" style="fill:#ffffff;fill-opacity:1;fill-rule:nonzero;stroke:none" d="M 327.583,100.128 C 324.806,102.877 322.179,107.229 322.827,111.295 L 322.874,111.386 C 323.969,106.337 326.456,101.943 330.259,98.827 C 329.795,98.607 329.185,98.989 328.687,99.252 C 328.61,99.875 327.822,99.595 327.583,100.128"/><path id="path7251" style="fill:#ffffff;fill-opacity:1;fill-rule:nonzero;stroke:none" d="M 325.316,114.676 C 325.823,110.926 326.916,106.75 328.948,103.466 L 328.784,103.377 C 328.817,102.781 329.45,102.445 329.839,102.298 C 330.015,102.089 329.478,101.62 329.763,101.061 C 326.536,104.281 324.589,110.13 325.316,114.676"/><path id="path7253" style="fill:#1f57af;fill-opacity:1;fill-rule:nonzero;stroke:none" d="M 327.464,132.345 C 331.741,150.803 338.138,171.585 347.462,188.319 C 348.416,189.406 348.884,190.981 350.051,191.891 C 350.34,192.928 350.923,193.708 351.456,194.503 C 352.772,193.582 352.239,191.652 352.729,190.194 C 353.541,180.255 350.935,170.102 348.554,159.979 C 346.46,152.031 343.46,143.79 340.02,136.502 C 340.149,136.406 340.541,136.277 340.475,135.92 C 340.576,135.077 339.635,135.172 339.196,134.831 C 336.596,130.075 334.432,125.014 331.376,120.678 C 331.669,120.256 332.576,120.389 332.528,119.756 C 332.513,119.221 331.995,118.961 331.606,118.927 L 325.361,120.456 C 325.078,124.331 326.788,128.354 327.464,132.345"/><path id="path7255" style="fill:#ffffff;fill-opacity:1;fill-rule:nonzero;stroke:none" d="M 327.432,121.985 C 328.868,126.316 330.335,130.908 331.723,134.931 C 332.481,135.76 334.009,134.822 335.16,134.71 L 335.761,134.241 C 333.725,130.217 331.3,125.997 329.055,121.825 C 328.653,121.094 327.854,121.79 327.432,121.985"/><path id="path7257" style="fill:#ffffff;fill-opacity:1;fill-rule:nonzero;stroke:none" d="M 334.681,139.946 C 340.168,153.089 344.339,167.479 348.725,180.879 C 346.4,167.012 342.569,152.024 336.53,139.333 L 334.681,139.946"/><path id="path7259" style="fill:#ffffff;fill-opacity:1;fill-rule:nonzero;stroke:none" d="M 302.327,188.366 C 302.327,188.366 295.662,192.211 297.456,179.906 L 301.814,179.65 C 301.814,179.65 296.944,185.291 302.327,188.366"/><path id="path7261" style="fill:#ffffff;fill-opacity:1;fill-rule:nonzero;stroke:none" d="M 242.979,187.241 L 279.608,162.14 C 279.608,162.14 272.056,157.881 253.008,170.54 C 253.008,170.54 241.701,180.84 242.979,187.241"/><path id="path7263" style="fill:#ffffff;fill-opacity:1;fill-rule:nonzero;stroke:none" d="M 248.117,181.327 C 248.117,181.327 258.607,191.54 276.108,182.79 L 284.159,177.54 L 248.117,181.327"/><path id="path7265" style="fill:#1f57af;fill-opacity:1;fill-rule:nonzero;stroke:none" d="M 256.87,166.692 C 252.35,169.629 248.83,173.829 245.069,177.718 C 242.758,178.072 240.264,177.911 237.848,178.028 C 239.176,174.602 237.817,170.201 235.364,167.656 C 233.06,165.37 229.76,164.229 226.721,164.94 C 222.465,165.616 219.414,169.079 218.359,173.071 C 218.091,176.387 219.199,180.293 221.901,182.393 C 225.459,185.378 230.166,185.366 233.96,183.199 C 235.545,182.674 235.977,179.276 238.168,181.028 C 239.337,181.564 240.644,181.646 241.867,181.979 L 237.715,189.409 C 234.342,188.403 230.041,189.056 227.555,191.718 C 224.919,194.65 224.013,198.373 224.88,201.97 C 226.187,205.519 229.614,208.317 233.418,208.973 C 237.223,209.629 241.056,207.603 243.17,204.555 C 245.345,201.19 245.272,196.274 242.727,192.737 C 242.444,192.402 242.041,192.178 241.878,191.734 C 244.85,189.989 247.126,187.385 250.035,185.544 C 254.249,187.252 258.781,187.026 263.192,187.435 C 272.663,188.145 280.447,181.571 287.75,177.018 C 286.312,176.333 284.13,176.874 282.476,176.89 L 259.427,177.989 C 259.606,177.561 260.041,177.098 260.599,176.939 L 261.172,176.966 C 268.63,171.501 276.003,166.401 283.595,161.012 L 283.607,160.784 C 274.853,157.948 264.074,161.262 256.87,166.692 z M 277.943,161.896 L 274.051,164.43 C 262.542,170.625 253.014,179.524 242.979,187.241 L 242.592,187.199 C 246.138,180.958 250.937,175.418 256.192,170.954 C 261.849,166.714 270.474,161.598 277.943,161.896 z M 281.368,178.727 C 274.964,182.197 265.593,186.41 258.51,184.685 C 256.804,184.375 254.825,183.699 253.139,182.933 L 256.022,180.61 C 263.653,180.409 273.493,178.733 281.368,178.727 z M 249.603,180.454 C 249.566,181.254 248.853,181.797 248.117,181.327 C 247.883,180.903 247.77,180.371 248.18,179.952 C 248.729,179.497 249.296,180.165 249.603,180.454 z M 232.913,172.041 C 234.013,174.065 234.033,176.133 233.023,178.152 C 232.001,179.873 229.938,180.306 228.027,180.47 C 226.348,180.531 224.669,179.122 223.715,177.885 C 222.951,176.518 222.663,174.829 222.98,173.42 C 223.656,171.685 224.848,170.708 226.221,169.829 C 228.692,168.979 231.423,169.976 232.913,172.041 z M 235.891,194.145 C 237.742,194.827 239.342,195.956 239.901,197.795 C 240.489,199.473 239.812,201.21 238.833,202.543 C 237.341,204.058 235.222,204.695 233.187,204.027 C 231.292,203.321 229.662,201.824 229.438,199.702 C 229.174,197.966 230.234,195.858 231.656,194.891 C 232.868,193.983 234.522,193.966 235.891,194.145"/><path id="path7267" style="fill:#ffffff;fill-opacity:1;fill-rule:nonzero;stroke:none" d="M 223.409,168.502 C 222.127,169.431 220.983,170.846 220.655,172.485 L 220.931,173.461 C 221.096,173.376 221.205,173.497 221.294,173.545 C 221.658,171.635 222.923,169.582 224.658,168.79 C 225.855,168.225 227.215,168.102 228.405,168.181 L 228.895,167.515 C 227.172,167.022 224.926,167.47 223.409,168.502"/></g></g></svg>